<svg xmlns="http://www.w3.org/2000/svg" xmlns:svg="http://www.w3.org/2000/svg" xmlns:xlink="http://www.w3.org/1999/xlink" version="1.0" height="565pt" width="1060pt" viewBox="5 17 1068 571" ><defs><style type="text/css">
            @font-face {
                font-family: 'noto_regular';
                src: url('https://app.creately.com/diagram/assets/fonts/noto/noto-regular.woff') format('woff'),
                     url('https://app.creately.com/diagram/assets/fonts/noto/noto-regular.woff2') format('woff2');
                font-weight: normal;
                font-style: normal;
            }
        p {
            margin: 0;
        }
        </style></defs><defs><style>
            span{ display: inline-block; }
        </style></defs><g id="2tu3mef8oc"><g transform="translate(155 100)"><rect x="0" y="0" width="105.00000286102295" height="40.00000071525574" fill="rgba(255,255,255,1)" stroke="#5e5ca7" stroke-width="1.5" stroke-linecap="round" stroke-linejoin="round"/></g><g transform="translate(186.50000143051147, 102.50000035762787) rotate(0, 21, 17.5)" width="42" height="35"><text text-decoration="none" x="2.5" fill="rgb(0, 0, 0)" font-style="italic" font-weight="bold" font-size="10pt" font-family="Arial"  y="14">donor</text><text text-decoration="none" x="39.5" fill="rgb(0, 0, 0)" font-weight="bold" font-size="10pt" font-family="Arial"  y="14"></text><text text-decoration="none" x="21" fill="#4b4b4b" font-size="10pt" font-family="noto_regular"  y="36"></text></g></g><g id="5w3v6y059t"><g transform="translate(655 245)"><rect x="0" y="0" width="102" height="45.000001192092896" fill="rgba(255,255,255,1)" stroke="#5e5ca7" stroke-width="1.5" stroke-linecap="round" stroke-linejoin="round"/></g><g transform="translate(677, 258.00000059604645) rotate(0, 29, 9.5)" width="58" height="19"><text text-decoration="none" x="3.5" fill="rgb(0, 0, 0)" font-style="italic" font-weight="bold" font-size="10pt" font-family="Arial"  y="17">hospital</text><text text-decoration="none" x="54.5" fill="#4b4b4b" font-size="10pt" font-family="noto_regular"  y="17"></text></g></g><g id="17ova7wsqw"><g transform="translate(485 100) rotate(-1.9386238216295185e-15)"><rect x="0" y="0" width="105.00000286102295" height="39.99999761581421" fill="rgba(255,255,255,1)" stroke="#5e5ca7" stroke-width="1.5" stroke-linecap="round" stroke-linejoin="round"/></g><g transform="translate(517.5000014305115, 110.4999988079071) rotate(0, 20, 9.5)" width="40" height="19"><text text-decoration="none" x="2" fill="rgb(0, 0, 0)" font-style="italic" font-weight="bold" font-size="10pt" font-family="Arial"  y="17">blood</text><text text-decoration="none" x="38" fill="#4b4b4b" font-size="10pt" font-family="noto_regular"  y="17"></text></g></g><g id="1p6cx9pi8i"><g transform="translate(815 385)"><rect x="0" y="0" width="102" height="40.00000071525574" fill="rgba(255,255,255,1)" stroke="#5e5ca7" stroke-width="1.5" stroke-linecap="round" stroke-linejoin="round"/></g><g transform="translate(840, 395.50000035762787) rotate(0, 26, 9.5)" width="52" height="19"><text text-decoration="none" x="3.5" fill="rgb(0, 0, 0)" font-style="italic" font-weight="bold" font-size="10pt" font-family="Arial"  y="17">patient</text><text text-decoration="none" x="48.5" fill="#4b4b4b" font-size="10pt" font-family="noto_regular"  y="17"></text></g></g><g id="699mtmnd0k"><g transform="translate(620 425)"><rect x="0" y="0" width="102" height="44.99999809265137" fill="rgba(255,255,255,1)" stroke="#5e5ca7" stroke-width="1.5" stroke-linecap="round" stroke-linejoin="round"/></g><g transform="translate(630.5, 429.9999990463257) rotate(0, 40.5, 17.5)" width="81" height="35"><text text-decoration="none" x="5.5" fill="rgb(0, 0, 0)" font-style="italic" font-weight="bold" font-size="10pt" font-family="Arial"  y="14">blood&#160;</text><text text-decoration="none" x="44.5" fill="rgb(0, 0, 0)" font-style="italic" font-weight="bold" font-size="10pt" font-family="Arial"  y="14">bank</text><text text-decoration="none" x="75.5" fill="rgb(0, 0, 0)" font-style="italic" font-weight="bold" font-size="10pt" font-family="Arial"  y="14"></text><text text-decoration="none" x="13" fill="rgb(0, 0, 0)" font-style="italic" font-weight="bold" font-size="10pt" font-family="Arial"  y="36">manager</text><text text-decoration="none" x="68" fill="#4b4b4b" font-size="10pt" font-family="noto_regular"  y="36"></text></g></g><g id="31rj6e3a0g"><g transform="translate(325 360)"><rect x="0" y="0" width="102" height="44.99999809265137" fill="rgba(255,255,255,1)" stroke="#5e5ca7" stroke-width="1.5" stroke-linecap="round" stroke-linejoin="round"/></g><g transform="translate(335.5, 372.9999990463257) rotate(0, 40.5, 9.5)" width="81" height="19"><text text-decoration="none" x="5.5" fill="rgb(0, 0, 0)" font-style="italic" font-weight="bold" font-size="10pt" font-family="Arial"  y="17">blood&#160;</text><text text-decoration="none" x="44.5" fill="rgb(0, 0, 0)" font-style="italic" font-weight="bold" font-size="10pt" font-family="Arial"  y="17">bank</text><text text-decoration="none" x="75.5" fill="#4b4b4b" font-size="10pt" font-family="noto_regular"  y="17"></text></g></g><g id="25mavjmdll"><g transform="translate(155 270)"><rect x="0" y="0" width="102" height="44.99999809265137" fill="rgba(255,255,255,1)" stroke="#5e5ca7" stroke-width="1.5" stroke-linecap="round" stroke-linejoin="round"/></g><g transform="translate(162.5, 282.9999990463257) rotate(0, 43.5, 9.5)" width="87" height="19"><text text-decoration="none" x="7" fill="rgb(0, 0, 0)" font-style="italic" font-weight="bold" font-size="10pt" font-family="Arial"  y="17">receptionist</text><text text-decoration="none" x="80" fill="#4b4b4b" font-size="10pt" font-family="noto_regular"  y="17"></text></g></g><g id="1wgn03op1z"><g transform="translate(570 25)"><ellipse cx="50" cy="25" rx="50" ry="25" fill="rgba(255,255,255,1)" stroke="#f6902a" stroke-width="1.5" stroke-linecap="round" stroke-linejoin="round"/></g><g transform="translate(584.5, 40.5) rotate(0, 35.5, 9.5)" width="71" height="19"><text text-decoration="none" x="2" fill="rgb(75, 75, 75)" font-size="10pt" font-family="Lato"  y="17">Blood&#160;</text><text text-decoration="none" x="40" fill="rgb(75, 75, 75)" font-size="10pt" font-family="Lato"  y="17">Type</text><text text-decoration="none" x="69" fill="#4b4b4b" font-size="10pt" font-family="noto_regular"  y="17"></text></g></g><g id="5i4c8jyy53"><g transform="translate(135 20)"><ellipse cx="50" cy="25" rx="50" ry="25" fill="rgba(255,255,255,1)" stroke="#f6902a" stroke-width="1.5" stroke-linecap="round" stroke-linejoin="round"/></g><g transform="translate(165.5, 27.5) rotate(0, 19.5, 17.5)" width="39" height="35"><text text-decoration="none" x="0.5" fill="rgb(75, 75, 75)" font-size="10pt" font-family="Lato"  y="14">Donor</text><text text-decoration="none" x="38.5" fill="rgb(75, 75, 75)" font-size="10pt" font-family="Lato"  y="14"></text><text text-decoration="none" x="1.5" fill="rgb(75, 75, 75)" font-size="10pt" font-family="Lato"  y="36">Name</text><text text-decoration="none" x="37.5" fill="#4b4b4b" font-size="10pt" font-family="noto_regular"  y="36"></text></g></g><g id="7gl9dlhmvm"><g transform="translate(245 20)"><ellipse cx="50" cy="25" rx="50" ry="25" fill="rgba(255,255,255,1)" stroke="#f6902a" stroke-width="1.5" stroke-linecap="round" stroke-linejoin="round"/></g><g transform="translate(280.5, 27.5) rotate(0, 14.5, 17.5)" width="29" height="35"><text text-decoration="none" x="1" fill="rgb(75, 75, 75)" font-size="10pt" font-family="Lato"  y="14">DOB</text><text text-decoration="none" x="28" fill="rgb(75, 75, 75)" font-size="10pt" font-family="Lato"  y="14"></text><text text-decoration="none" x="14.5" fill="#4b4b4b" font-size="10pt" font-family="noto_regular"  y="36"></text></g></g><g id="27ywd5jhfr"><g transform="translate(15 95)"><ellipse cx="50" cy="25" rx="50" ry="25" fill="rgba(255,255,255,1)" stroke="#f6902a" stroke-width="1.5" stroke-linecap="round" stroke-linejoin="round"/></g><g transform="translate(38, 102.5) rotate(0, 27, 17.5)" width="54" height="35"><text text-decoration="none" x="2" fill="rgb(75, 75, 75)" font-size="10pt" font-family="Lato"  y="14">Contact&#160;</text><text text-decoration="none" x="52" fill="rgb(75, 75, 75)" font-size="10pt" font-family="Lato"  y="14"></text><text text-decoration="none" x="2" fill="rgb(75, 75, 75)" font-size="10pt" font-family="Lato"  y="36">Number</text><text text-decoration="none" x="52" fill="#4b4b4b" font-size="10pt" font-family="noto_regular"  y="36"></text></g></g><g id="6zoqxsmggd"><g transform="translate(15 20)"><ellipse cx="50" cy="25" rx="50" ry="25" fill="rgba(255,255,255,1)" stroke="#f6902a" stroke-width="1.5" stroke-linecap="round" stroke-linejoin="round"/></g><g transform="translate(36.5, 35.5) rotate(0, 28.5, 9.5)" width="57" height="19"><text text-decoration="underline" x="1.5" fill="rgb(75, 75, 75)" font-size="10pt" font-family="Lato"  y="17">Donor&#160;</text><text text-decoration="underline" x="42.5" fill="rgb(75, 75, 75)" font-size="10pt" font-family="Lato"  y="17">ID</text><text text-decoration="none" x="55.5" fill="#4b4b4b" font-size="10pt" font-family="noto_regular"  y="17"></text></g></g><g id="7k6aesfhvq"><g transform="translate(315 90)"><path d="M 130,30 L 65,60 L 0,30 L 65,0 L 130,30 L 130,30 Z" fill="rgba(255,255,255,1)" stroke="#75c19b" stroke-width="1.5" stroke-linecap="round" stroke-linejoin="round"/></g><g transform="translate(354, 110.5) rotate(0, 26, 9.5)" width="52" height="19"><text text-decoration="none" x="1.5" fill="rgb(75, 75, 75)" font-size="10pt" font-family="Lato"  y="17">donates</text><text text-decoration="none" x="50.5" fill="#4b4b4b" font-size="10pt" font-family="noto_regular"  y="17"></text></g></g><g id="2ndunrro9v"><g transform="translate(610 90)"><ellipse cx="50" cy="25" rx="50" ry="25" fill="rgba(255,255,255,1)" stroke="#f6902a" stroke-width="1.5" stroke-linecap="round" stroke-linejoin="round"/></g><g transform="translate(645.5, 105.5) rotate(0, 14.5, 9.5)" width="29" height="19"><text text-decoration="none" x="1" fill="rgb(75, 75, 75)" font-size="10pt" font-family="Lato"  y="17">Cost</text><text text-decoration="none" x="28" fill="#4b4b4b" font-size="10pt" font-family="noto_regular"  y="17"></text></g></g><g id="4wflq0qbss"><g transform="translate(140 175)"><path d="M 130,30 L 65,60 L 0,30 L 65,0 L 130,30 L 130,30 Z" fill="rgba(255,255,255,1)" stroke="#75c19b" stroke-width="1.5" stroke-linecap="round" stroke-linejoin="round"/></g><g transform="translate(175, 195.5) rotate(0, 30, 9.5)" width="60" height="19"><text text-decoration="none" x="3" fill="rgb(75, 75, 75)" font-size="10pt" font-family="Lato"  y="17">Registers</text><text text-decoration="none" x="57" fill="#4b4b4b" font-size="10pt" font-family="noto_regular"  y="17"></text></g></g><g id="7lsowll51m"><g transform="translate(10 300)"><ellipse cx="50" cy="25" rx="50" ry="25" fill="rgba(255,255,255,1)" stroke="#f6902a" stroke-width="1.5" stroke-linecap="round" stroke-linejoin="round"/></g><g transform="translate(27.5, 307.5) rotate(0, 32.5, 17.5)" width="65" height="35"><text text-decoration="none" x="3" fill="rgb(75, 75, 75)" font-size="10pt" font-family="Lato"  y="14">Employee</text><text text-decoration="none" x="62" fill="rgb(75, 75, 75)" font-size="10pt" font-family="Lato"  y="14"></text><text text-decoration="none" x="14.5" fill="rgb(75, 75, 75)" font-size="10pt" font-family="Lato"  y="36">Name</text><text text-decoration="none" x="50.5" fill="#4b4b4b" font-size="10pt" font-family="noto_regular"  y="36"></text></g></g><g id="r44pqe7c8p"><g transform="translate(10 370)"><ellipse cx="50" cy="25" rx="50" ry="25" fill="rgba(255,255,255,1)" stroke="#f6902a" stroke-width="1.5" stroke-linecap="round" stroke-linejoin="round"/></g><g transform="translate(33, 377.5) rotate(0, 27, 17.5)" width="54" height="35"><text text-decoration="none" x="2" fill="rgb(75, 75, 75)" font-size="10pt" font-family="Lato"  y="14">Contact&#160;</text><text text-decoration="none" x="52" fill="rgb(75, 75, 75)" font-size="10pt" font-family="Lato"  y="14"></text><text text-decoration="none" x="2" fill="rgb(75, 75, 75)" font-size="10pt" font-family="Lato"  y="36">Number</text><text text-decoration="none" x="52" fill="#4b4b4b" font-size="10pt" font-family="noto_regular"  y="36"></text></g></g><g id="bhvibti7m1"><g transform="translate(275 285)"><path d="M 130,30 L 65,60 L 0,30 L 65,0 L 130,30 L 130,30 Z" fill="rgba(255,255,255,1)" stroke="#75c19b" stroke-width="1.5" stroke-linecap="round" stroke-linejoin="round"/></g><g transform="translate(305.5, 297.5) rotate(0, 34.5, 17.5)" width="69" height="35"><text text-decoration="none" x="3" fill="rgb(75, 75, 75)" font-size="10pt" font-family="Lato"  y="14">Employed&#160;</text><text text-decoration="none" x="66" fill="rgb(75, 75, 75)" font-size="10pt" font-family="Lato"  y="14"></text><text text-decoration="none" x="27" fill="rgb(75, 75, 75)" font-size="10pt" font-family="Lato"  y="36">By</text><text text-decoration="none" x="42" fill="#4b4b4b" font-size="10pt" font-family="noto_regular"  y="36"></text></g></g><g id="140hwf7093"><g transform="translate(460 25)"><ellipse cx="50" cy="25" rx="50" ry="25" fill="rgba(255,255,255,1)" stroke="#f6902a" stroke-width="1.5" stroke-linecap="round" stroke-linejoin="round"/></g><g transform="translate(482.5, 32.5) rotate(0, 27.5, 17.5)" width="55" height="35"><text text-decoration="underline" x="2" fill="rgb(75, 75, 75)" font-size="10pt" font-family="Lato"  y="14">Blood&#160;</text><text text-decoration="underline" x="40" fill="rgb(75, 75, 75)" font-size="10pt" font-family="Lato"  y="14">ID</text><text text-decoration="underline" x="53" fill="rgb(75, 75, 75)" font-size="10pt" font-family="Lato"  y="14"></text><text text-decoration="underline" x="2.5" fill="rgb(75, 75, 75)" font-size="10pt" font-family="Lato"  y="36">Number</text><text text-decoration="none" x="52.5" fill="#4b4b4b" font-size="10pt" font-family="noto_regular"  y="36"></text></g></g><g id="cboskdrx5t"><g><path d="M 112,114 L 155,115" fill="none" stroke="#a0a0a0" stroke-width="1.5" stroke-linecap="round" stroke-linejoin="round"/></g></g><g id="25c1ecs6oh"><g><path d="M 105,60 L 155,100" fill="none" stroke="#a0a0a0" stroke-width="1.5" stroke-linecap="round" stroke-linejoin="round"/></g></g><g id="2ls2tgexyo"><g><path d="M 187.5,71.5 L 190,100" fill="none" stroke="#a0a0a0" stroke-width="1.5" stroke-linecap="round" stroke-linejoin="round"/></g></g><g id="2pe7xbquj5"><g><path d="M 257,97 L 275,70" fill="none" stroke="#a0a0a0" stroke-width="1.5" stroke-linecap="round" stroke-linejoin="round"/></g></g><g id="258jp629v0"><g><path d="M 260,120 L 315,120" fill="none" stroke="#a0a0a0" stroke-width="1.5" stroke-linecap="round" stroke-linejoin="round"/></g></g><g id="5gxjwcy7vf"><g><path d="M 445,120 L 485,120" fill="none" stroke="#a0a0a0" stroke-width="1.5" stroke-linecap="round" stroke-linejoin="round"/></g></g><g id="1fdlz8rhv8"><g><path d="M 525,100 L 520,75" fill="none" stroke="#a0a0a0" stroke-width="1.5" stroke-linecap="round" stroke-linejoin="round"/></g></g><g id="2pjteivm38"><g><path d="M 585,100 L 600,75" fill="none" stroke="#a0a0a0" stroke-width="1.5" stroke-linecap="round" stroke-linejoin="round"/></g></g><g id="1c3pofx2cp"><g><path d="M 590,115 L 610,115" fill="none" stroke="#a0a0a0" stroke-width="1.5" stroke-linecap="round" stroke-linejoin="round"/></g></g><g id="264pnnb4rd"><g><path d="M 199,139 L 199,139" fill="none" stroke="#a0a0a0" stroke-width="1.5" stroke-linecap="round" stroke-linejoin="round"/></g></g><g id="1vdytho1tq"><g><path d="M 199,157.5 L 199,157.5" fill="none" stroke="#a0a0a0" stroke-width="1.5" stroke-linecap="round" stroke-linejoin="round"/></g></g><g id="2lq6ysytbb"><g><path d="M 205,175 L 205,140" fill="none" stroke="#a0a0a0" stroke-width="1.5" stroke-linecap="round" stroke-linejoin="round"/></g></g><g id="2l422h3mb7"><g transform="translate(10 235)"><ellipse cx="50" cy="25" rx="50" ry="25" fill="rgba(255,255,255,1)" stroke="#f6902a" stroke-width="1.5" stroke-linecap="round" stroke-linejoin="round"/></g><g transform="translate(27.5, 242.5) rotate(0, 32.5, 17.5)" width="65" height="35"><text text-decoration="underline" x="3" fill="rgb(75, 75, 75)" font-size="10pt" font-family="Lato"  y="14">Employee</text><text text-decoration="underline" x="62" fill="rgb(75, 75, 75)" font-size="10pt" font-family="Lato"  y="14"></text><text text-decoration="underline" x="26" fill="rgb(75, 75, 75)" font-size="10pt" font-family="Lato"  y="36">ID</text><text text-decoration="none" x="39" fill="#4b4b4b" font-size="10pt" font-family="noto_regular"  y="36"></text></g></g><g id="1xts2wzwlk"><g><path d="M 110,318 L 110,318" fill="none" stroke="#a0a0a0" stroke-width="1.5" stroke-linecap="round" stroke-linejoin="round"/></g></g><g id="27jfymhvsa"><g><path d="M 111,320 L 155,295" fill="none" stroke="#a0a0a0" stroke-width="1.5" stroke-linecap="round" stroke-linejoin="round"/></g></g><g id="ysa1by9ll4"><g><path d="M 109,390 L 165,315" fill="none" stroke="#a0a0a0" stroke-width="1.5" stroke-linecap="round" stroke-linejoin="round"/></g></g><g id="1ykkikhwnm"><g><path d="M 205,235 L 205,270" fill="none" stroke="#a0a0a0" stroke-width="1.5" stroke-linecap="round" stroke-linejoin="round"/></g></g><g id="2n2l47izz7"><g transform="translate(390 200)"><path d="M 130,30 L 65,60 L 0,30 L 65,0 L 130,30 L 130,30 Z" fill="rgba(255,255,255,1)" stroke="#75c19b" stroke-width="1.5" stroke-linecap="round" stroke-linejoin="round"/></g><g transform="translate(434, 220.5) rotate(0, 21, 9.5)" width="42" height="19"><text text-decoration="none" x="1" fill="rgb(75, 75, 75)" font-size="10pt" font-family="Lato"  y="17">Stored</text><text text-decoration="none" x="41" fill="#4b4b4b" font-size="10pt" font-family="noto_regular"  y="17"></text></g></g><g id="krd24i70cy"><g><path d="M 510,140 L 480,210" fill="none" stroke="#a0a0a0" stroke-width="1.5" stroke-linecap="round" stroke-linejoin="round"/></g></g><g id="27d7dnm2it"><g><path d="M 455,260 L 410,360" fill="none" stroke="#a0a0a0" stroke-width="1.5" stroke-linecap="round" stroke-linejoin="round"/></g></g><g id="5k8d3bwf4v"><g><path d="M 370,330 L 380,360" fill="none" stroke="#a0a0a0" stroke-width="1.5" stroke-linecap="round" stroke-linejoin="round"/></g></g><g id="blpmgvmkvm"><g transform="translate(470 380)"><path d="M 130,30 L 65,60 L 0,30 L 65,0 L 130,30 L 130,30 Z" fill="rgba(255,255,255,1)" stroke="#75c19b" stroke-width="1.5" stroke-linecap="round" stroke-linejoin="round"/></g><g transform="translate(506, 400.5) rotate(0, 29, 9.5)" width="58" height="19"><text text-decoration="none" x="2" fill="rgb(75, 75, 75)" font-size="10pt" font-family="Lato"  y="17">Manages</text><text text-decoration="none" x="56" fill="#4b4b4b" font-size="10pt" font-family="noto_regular"  y="17"></text></g></g><g id="nlhxmyun2p"><g transform="translate(495 265)"><path d="M 130,30 L 65,60 L 0,30 L 65,0 L 130,30 L 130,30 Z" fill="rgba(255,255,255,1)" stroke="#75c19b" stroke-width="1.5" stroke-linecap="round" stroke-linejoin="round"/></g><g transform="translate(538.5, 285.5) rotate(0, 21.5, 9.5)" width="43" height="19"><text text-decoration="none" x="1" fill="rgb(75, 75, 75)" font-size="10pt" font-family="Lato"  y="17">Orders</text><text text-decoration="none" x="42" fill="#4b4b4b" font-size="10pt" font-family="noto_regular"  y="17"></text></g></g><g id="1z94qjgqpq"><g><path d="M 425,380 L 505,395" fill="none" stroke="#a0a0a0" stroke-width="1.5" stroke-linecap="round" stroke-linejoin="round"/></g></g><g id="1xhrym2iqi"><g><path d="M 507,426 L 507,426" fill="none" stroke="#a0a0a0" stroke-width="1.5" stroke-linecap="round" stroke-linejoin="round"/></g></g><g id="295re0u7o5"><g><path d="M 600,410 L 620,425" fill="none" stroke="#a0a0a0" stroke-width="1.5" stroke-linecap="round" stroke-linejoin="round"/></g></g><g id="14fg2grb1z"><g transform="translate(190 360)"><ellipse cx="50" cy="25" rx="50" ry="25" fill="rgba(255,255,255,1)" stroke="#f6902a" stroke-width="1.5" stroke-linecap="round" stroke-linejoin="round"/></g><g transform="translate(203, 367.5) rotate(0, 37, 17.5)" width="74" height="35"><text text-decoration="underline" x="3" fill="rgb(75, 75, 75)" font-size="10pt" font-family="Lato"  y="14">Blood&#160;</text><text text-decoration="underline" x="41" fill="rgb(75, 75, 75)" font-size="10pt" font-family="Lato"  y="14">Bank</text><text text-decoration="underline" x="71" fill="rgb(75, 75, 75)" font-size="10pt" font-family="Lato"  y="14"></text><text text-decoration="underline" x="30.5" fill="rgb(75, 75, 75)" font-size="10pt" font-family="Lato"  y="36">ID</text><text text-decoration="none" x="43.5" fill="#4b4b4b" font-size="10pt" font-family="noto_regular"  y="36"></text></g></g><g id="2bikdfa0sq"><g transform="translate(180 430)"><ellipse cx="50" cy="25" rx="50" ry="25" fill="rgba(255,255,255,1)" stroke="#f6902a" stroke-width="1.5" stroke-linecap="round" stroke-linejoin="round"/></g><g transform="translate(209.5, 445.5) rotate(0, 20.5, 9.5)" width="41" height="19"><text text-decoration="none" x="2" fill="rgb(75, 75, 75)" font-size="10pt" font-family="Lato"  y="17">Issues</text><text text-decoration="none" x="39" fill="#4b4b4b" font-size="10pt" font-family="noto_regular"  y="17"></text></g></g><g id="2pliwa0b5i"><g transform="translate(265 480)"><ellipse cx="50" cy="25" rx="50" ry="25" fill="rgba(255,255,255,1)" stroke="#f6902a" stroke-width="1.5" stroke-linecap="round" stroke-linejoin="round"/></g><g transform="translate(293.5, 495.5) rotate(0, 21.5, 9.5)" width="43" height="19"><text text-decoration="none" x="1" fill="rgb(75, 75, 75)" font-size="10pt" font-family="Lato"  y="17">Orders</text><text text-decoration="none" x="42" fill="#4b4b4b" font-size="10pt" font-family="noto_regular"  y="17"></text></g></g><g id="65f1xhqev2"><g transform="translate(350 435)"><ellipse cx="50" cy="25" rx="50" ry="25" fill="rgba(255,255,255,1)" stroke="#f6902a" stroke-width="1.5" stroke-linecap="round" stroke-linejoin="round"/></g><g transform="translate(364.5, 450.5) rotate(0, 35.5, 9.5)" width="71" height="19"><text text-decoration="none" x="2" fill="rgb(75, 75, 75)" font-size="10pt" font-family="Lato"  y="17">Blood&#160;</text><text text-decoration="none" x="40" fill="rgb(75, 75, 75)" font-size="10pt" font-family="Lato"  y="17">Type</text><text text-decoration="none" x="69" fill="#4b4b4b" font-size="10pt" font-family="noto_regular"  y="17"></text></g></g><g id="2gykepjaph"><g><path d="M 289,380 L 325,380" fill="none" stroke="#a0a0a0" stroke-width="1.5" stroke-linecap="round" stroke-linejoin="round"/></g></g><g id="2e953utbik"><g><path d="M 278,448 L 325,400" fill="none" stroke="#a0a0a0" stroke-width="1.5" stroke-linecap="round" stroke-linejoin="round"/></g></g><g id="231azkgbea"><g><path d="M 315,480 L 340,405" fill="none" stroke="#a0a0a0" stroke-width="1.5" stroke-linecap="round" stroke-linejoin="round"/></g></g><g id="64uactz8mu"><g><path d="M 390,435 L 385,405" fill="none" stroke="#a0a0a0" stroke-width="1.5" stroke-linecap="round" stroke-linejoin="round"/></g></g><g id="1ph5vuthog"><g><path d="M 255,287.95 L 315,295" fill="none" stroke="#a0a0a0" stroke-width="1.5" stroke-linecap="round" stroke-linejoin="round"/></g></g><g id="2o2sc24n2m"><g><path d="M 525,310 L 425,370" fill="none" stroke="#a0a0a0" stroke-width="1.5" stroke-linecap="round" stroke-linejoin="round"/></g></g><g id="2bv81l8v11"><g><path d="M 595,280 L 655,270" fill="none" stroke="#a0a0a0" stroke-width="1.5" stroke-linecap="round" stroke-linejoin="round"/></g></g><g id="1wrrrmmz3n"><g transform="translate(675 175)"><ellipse cx="50" cy="25" rx="50" ry="25" fill="rgba(255,255,255,1)" stroke="#f6902a" stroke-width="1.5" stroke-linecap="round" stroke-linejoin="round"/></g><g transform="translate(676.5, 190.5) rotate(0, 48.5, 9.5)" width="97" height="19"><text text-decoration="underline" x="4" fill="rgb(75, 75, 75)" font-size="10pt" font-family="Lato"  y="17">Hospital&#160;</text><text text-decoration="underline" x="57" fill="rgb(75, 75, 75)" font-size="10pt" font-family="Lato"  y="17">Name</text><text text-decoration="none" x="93" fill="#4b4b4b" font-size="10pt" font-family="noto_regular"  y="17"></text></g></g><g id="2ex46ocq1d"><g transform="translate(785 180)"><ellipse cx="50" cy="25" rx="50" ry="25" fill="rgba(255,255,255,1)" stroke="#f6902a" stroke-width="1.5" stroke-linecap="round" stroke-linejoin="round"/></g><g transform="translate(809, 195.5) rotate(0, 26, 9.5)" width="52" height="19"><text text-decoration="none" x="2" fill="rgb(75, 75, 75)" font-size="10pt" font-family="Lato"  y="17">Address</text><text text-decoration="none" x="50" fill="#4b4b4b" font-size="10pt" font-family="noto_regular"  y="17"></text></g></g><g id="1c5gxwo6gm"><g transform="translate(820 240)"><ellipse cx="50" cy="25" rx="50" ry="25" fill="rgba(255,255,255,1)" stroke="#f6902a" stroke-width="1.5" stroke-linecap="round" stroke-linejoin="round"/></g><g transform="translate(843, 247.5) rotate(0, 27, 17.5)" width="54" height="35"><text text-decoration="none" x="2" fill="rgb(75, 75, 75)" font-size="10pt" font-family="Lato"  y="14">Contact&#160;</text><text text-decoration="none" x="52" fill="rgb(75, 75, 75)" font-size="10pt" font-family="Lato"  y="14"></text><text text-decoration="none" x="2" fill="rgb(75, 75, 75)" font-size="10pt" font-family="Lato"  y="36">Number</text><text text-decoration="none" x="52" fill="#4b4b4b" font-size="10pt" font-family="noto_regular"  y="36"></text></g></g><g id="tbmmvwydoq"><g transform="translate(510 480)"><ellipse cx="50" cy="25" rx="50" ry="25" fill="rgba(255,255,255,1)" stroke="#f6902a" stroke-width="1.5" stroke-linecap="round" stroke-linejoin="round"/></g><g transform="translate(527.5, 487.5) rotate(0, 32.5, 17.5)" width="65" height="35"><text text-decoration="underline" x="3" fill="rgb(75, 75, 75)" font-size="10pt" font-family="Lato"  y="14">Employee</text><text text-decoration="underline" x="62" fill="rgb(75, 75, 75)" font-size="10pt" font-family="Lato"  y="14"></text><text text-decoration="underline" x="26" fill="rgb(75, 75, 75)" font-size="10pt" font-family="Lato"  y="36">ID</text><text text-decoration="none" x="39" fill="#4b4b4b" font-size="10pt" font-family="noto_regular"  y="36"></text></g></g><g id="1496a7mlmc"><g transform="translate(575 535)"><ellipse cx="50" cy="25" rx="50" ry="25" fill="rgba(255,255,255,1)" stroke="#f6902a" stroke-width="1.5" stroke-linecap="round" stroke-linejoin="round"/></g><g transform="translate(605.5, 550.5) rotate(0, 19.5, 9.5)" width="39" height="19"><text text-decoration="none" x="1.5" fill="rgb(75, 75, 75)" font-size="10pt" font-family="Lato"  y="17">Name</text><text text-decoration="none" x="37.5" fill="#4b4b4b" font-size="10pt" font-family="noto_regular"  y="17"></text></g></g><g id="8k6cdws52n"><g transform="translate(670 490)"><ellipse cx="50" cy="25" rx="50" ry="25" fill="rgba(255,255,255,1)" stroke="#f6902a" stroke-width="1.5" stroke-linecap="round" stroke-linejoin="round"/></g><g transform="translate(694, 497.5) rotate(0, 26, 17.5)" width="52" height="35"><text text-decoration="none" x="2.5" fill="rgb(75, 75, 75)" font-size="10pt" font-family="Lato"  y="14">Contact</text><text text-decoration="none" x="49.5" fill="rgb(75, 75, 75)" font-size="10pt" font-family="Lato"  y="14"></text><text text-decoration="none" x="1" fill="rgb(75, 75, 75)" font-size="10pt" font-family="Lato"  y="36">Number</text><text text-decoration="none" x="51" fill="#4b4b4b" font-size="10pt" font-family="noto_regular"  y="36"></text></g></g><g id="ada4o3arew"><g><path d="M 590,485 L 620,465" fill="none" stroke="#a0a0a0" stroke-width="1.5" stroke-linecap="round" stroke-linejoin="round"/></g></g><g id="8dg3pp6nux"><g><path d="M 631,531 L 645,470" fill="none" stroke="#a0a0a0" stroke-width="1.5" stroke-linecap="round" stroke-linejoin="round"/></g></g><g id="1qe0bm66cw"><g><path d="M 691,466.95 L 710,490" fill="none" stroke="#a0a0a0" stroke-width="1.5" stroke-linecap="round" stroke-linejoin="round"/></g></g><g id="1lh6ll5hiw"><g><path d="M 720,225 L 715,245" fill="none" stroke="#a0a0a0" stroke-width="1.5" stroke-linecap="round" stroke-linejoin="round"/></g></g><g id="auu636tf35"><g><path d="M 755,245 L 805,225" fill="none" stroke="#a0a0a0" stroke-width="1.5" stroke-linecap="round" stroke-linejoin="round"/></g></g><g id="223x6brccf"><g><path d="M 755,265 L 820,265" fill="none" stroke="#a0a0a0" stroke-width="1.5" stroke-linecap="round" stroke-linejoin="round"/></g></g><g id="42hafggeuv"><g transform="translate(705 300)"><path d="M 130,30 L 65,60 L 0,30 L 65,0 L 130,30 L 130,30 Z" fill="rgba(255,255,255,1)" stroke="#75c19b" stroke-width="1.5" stroke-linecap="round" stroke-linejoin="round"/></g><g transform="translate(743, 320.5) rotate(0, 27, 9.5)" width="54" height="19"><text text-decoration="none" x="3.5" fill="rgb(75, 75, 75)" font-size="10pt" font-family="Lato"  y="17">Delivers</text><text text-decoration="none" x="50.5" fill="#4b4b4b" font-size="10pt" font-family="noto_regular"  y="17"></text></g></g><g id="1puqzxwy8r"><g><path d="M 705,290 L 730,315" fill="none" stroke="#a0a0a0" stroke-width="1.5" stroke-linecap="round" stroke-linejoin="round"/></g></g><g id="1i1q0sanp6"><g><path d="M 789.5,378.5 L 789.5,378.5" fill="none" stroke="#a0a0a0" stroke-width="1.5" stroke-linecap="round" stroke-linejoin="round"/></g></g><g id="2j9zepjayw"><g><path d="M 788,383 L 788,383" fill="none" stroke="#a0a0a0" stroke-width="1.5" stroke-linecap="round" stroke-linejoin="round"/></g></g><g id="1tk5smy1kh"><g><path d="M 815,385 L 795,350" fill="none" stroke="#a0a0a0" stroke-width="1.5" stroke-linecap="round" stroke-linejoin="round"/></g></g><g id="2nv8x4vm9z"><g transform="translate(945 370)"><ellipse cx="50" cy="25" rx="50" ry="25" fill="rgba(255,255,255,1)" stroke="#f6902a" stroke-width="1.5" stroke-linecap="round" stroke-linejoin="round"/></g><g transform="translate(972.5, 377.5) rotate(0, 22.5, 17.5)" width="45" height="35"><text text-decoration="underline" x="1" fill="rgb(75, 75, 75)" font-size="10pt" font-family="Lato"  y="14">Patient</text><text text-decoration="underline" x="44" fill="rgb(75, 75, 75)" font-size="10pt" font-family="Lato"  y="14"></text><text text-decoration="underline" x="16" fill="rgb(75, 75, 75)" font-size="10pt" font-family="Lato"  y="36">ID</text><text text-decoration="none" x="29" fill="#4b4b4b" font-size="10pt" font-family="noto_regular"  y="36"></text></g></g><g id="28717oybu0"><g transform="translate(830 470)"><ellipse cx="50" cy="25" rx="50" ry="25" fill="rgba(255,255,255,1)" stroke="#f6902a" stroke-width="1.5" stroke-linecap="round" stroke-linejoin="round"/></g><g transform="translate(854, 477.5) rotate(0, 26, 17.5)" width="52" height="35"><text text-decoration="none" x="2.5" fill="rgb(75, 75, 75)" font-size="10pt" font-family="Lato"  y="14">Contact</text><text text-decoration="none" x="49.5" fill="rgb(75, 75, 75)" font-size="10pt" font-family="Lato"  y="14"></text><text text-decoration="none" x="1" fill="rgb(75, 75, 75)" font-size="10pt" font-family="Lato"  y="36">Number</text><text text-decoration="none" x="51" fill="#4b4b4b" font-size="10pt" font-family="noto_regular"  y="36"></text></g></g><g id="a8cxzt9icy"><g transform="translate(920 430)"><ellipse cx="50" cy="25" rx="50" ry="25" fill="rgba(255,255,255,1)" stroke="#f6902a" stroke-width="1.5" stroke-linecap="round" stroke-linejoin="round"/></g><g transform="translate(947.5, 437.5) rotate(0, 22.5, 17.5)" width="45" height="35"><text text-decoration="none" x="1" fill="rgb(75, 75, 75)" font-size="10pt" font-family="Lato"  y="14">Patient</text><text text-decoration="none" x="44" fill="rgb(75, 75, 75)" font-size="10pt" font-family="Lato"  y="14"></text><text text-decoration="none" x="4.5" fill="rgb(75, 75, 75)" font-size="10pt" font-family="Lato"  y="36">Name</text><text text-decoration="none" x="40.5" fill="#4b4b4b" font-size="10pt" font-family="noto_regular"  y="36"></text></g></g><g id="28x0rieiba"><g><path d="M 886,394 L 886,394" fill="none" stroke="#a0a0a0" stroke-width="1.5" stroke-linecap="round" stroke-linejoin="round"/></g></g><g id="1z2bm11aln"><g><path d="M 915,405 L 945,400" fill="none" stroke="#a0a0a0" stroke-width="1.5" stroke-linecap="round" stroke-linejoin="round"/></g></g><g id="1m6dxwmdwf"><g><path d="M 915,425 L 930,440" fill="none" stroke="#a0a0a0" stroke-width="1.5" stroke-linecap="round" stroke-linejoin="round"/></g></g><g id="2beryfpytq"><g><path d="M 860,425 L 865,470" fill="none" stroke="#a0a0a0" stroke-width="1.5" stroke-linecap="round" stroke-linejoin="round"/></g></g><g id="11bmw4m3vf"><g><path d="M 108,261 L 155,280" fill="none" stroke="#a0a0a0" stroke-width="1.5" stroke-linecap="round" stroke-linejoin="round"/></g></g><g id="q81xevbqvj"><g transform="translate(256 103)"><rect x="0" y="0" width="23.98136705160141" height="22.00000011920929" fill="rgba(255,255,255,0.01)" stroke="rgba(255,255,255,0.01)" stroke-width="NaN" stroke-linecap="round" stroke-linejoin="round"/></g><g transform="translate(263.9906835258007, 104.50000005960464) rotate(0, 4, 9.5)" width="8" height="19"><text text-decoration="none" x="0.5" fill="rgb(0, 0, 0)" font-size="9pt" font-family="Lato"  y="17">1</text><text text-decoration="none" x="7.5" fill="#4b4b4b" font-size="10pt" font-family="noto_regular"  y="17"></text></g></g><g id="5ehejcipol"><g transform="translate(468 100)"><rect x="0" y="0" width="21.9476155936718" height="25.000000536441803" fill="rgba(255,255,255,0.01)" stroke="rgba(255,255,255,0.01)" stroke-width="NaN" stroke-linecap="round" stroke-linejoin="round"/></g><g transform="translate(474.4738077968359, 103.0000002682209) rotate(0, 4.5, 9.5)" width="9" height="19"><text text-decoration="none" x="0" fill="rgb(0, 0, 0)" font-size="9pt" font-family="Lato"  y="17">N</text><text text-decoration="none" x="9" fill="#4b4b4b" font-size="10pt" font-family="noto_regular"  y="17"></text></g></g><g id="8dgjot0a3b"><g transform="translate(486 137)"><rect x="0" y="0" width="18.91014128923416" height="28.000000953674316" fill="rgba(255,255,255,0.01)" stroke="rgba(255,255,255,0.01)" stroke-width="NaN" stroke-linecap="round" stroke-linejoin="round"/></g><g transform="translate(490.9550706446171, 141.50000047683716) rotate(0, 4.5, 9.5)" width="9" height="19"><text text-decoration="none" x="0" fill="rgb(0, 0, 0)" font-size="9pt" font-family="Lato"  y="17">N</text><text text-decoration="none" x="9" fill="#4b4b4b" font-size="10pt" font-family="noto_regular"  y="17"></text></g></g><g id="2jsyyh1ahn"><g transform="translate(392 339)"><rect x="0" y="0" width="22.981709986925125" height="20.99999850988388" fill="rgba(255,255,255,0.01)" stroke="rgba(255,255,255,0.01)" stroke-width="NaN" stroke-linecap="round" stroke-linejoin="round"/></g><g transform="translate(399.49085499346256, 339.99999925494194) rotate(0, 4, 9.5)" width="8" height="19"><text text-decoration="none" x="0.5" fill="rgb(0, 0, 0)" font-size="9pt" font-family="Lato"  y="17">1</text><text text-decoration="none" x="7.5" fill="#4b4b4b" font-size="10pt" font-family="noto_regular"  y="17"></text></g></g><g id="9rrvp0p2i8"><g transform="translate(181 141.95)"><rect x="0" y="0" width="28.911294043064117" height="23.05000191926956" fill="rgba(255,255,255,0.01)" stroke="rgba(255,255,255,0.01)" stroke-width="NaN" stroke-linecap="round" stroke-linejoin="round"/></g><g transform="translate(190.95564702153206, 143.97500095963477) rotate(0, 4.5, 9.5)" width="9" height="19"><text text-decoration="none" x="0" fill="rgb(0, 0, 0)" font-size="9pt" font-family="Lato"  y="17">N</text><text text-decoration="none" x="9" fill="#4b4b4b" font-size="10pt" font-family="noto_regular"  y="17"></text></g></g><g id="sxn5g3umrg"><g transform="translate(183 253)"><rect x="0" y="0" width="27.000296115875244" height="22.00000011920929" fill="rgba(255,255,255,0.01)" stroke="rgba(255,255,255,0.01)" stroke-width="NaN" stroke-linecap="round" stroke-linejoin="round"/></g><g transform="translate(192.50014805793762, 254.50000005960464) rotate(0, 4, 9.5)" width="8" height="19"><text text-decoration="none" x="0.5" fill="rgb(0, 0, 0)" font-size="9pt" font-family="Lato"  y="17">1</text><text text-decoration="none" x="7.5" fill="#4b4b4b" font-size="10pt" font-family="noto_regular"  y="17"></text></g></g><g id="1untfioed8"><g transform="translate(253 271)"><rect x="0" y="0" width="22.007714956998825" height="24.00000113248825" fill="rgba(255,255,255,0.01)" stroke="rgba(255,255,255,0.01)" stroke-width="NaN" stroke-linecap="round" stroke-linejoin="round"/></g><g transform="translate(260.0038574784994, 273.5000005662441) rotate(0, 4, 9.5)" width="8" height="19"><text text-decoration="none" x="0.5" fill="rgb(0, 0, 0)" font-size="9pt" font-family="Lato"  y="17">1</text><text text-decoration="none" x="7.5" fill="#4b4b4b" font-size="10pt" font-family="noto_regular"  y="17"></text></g></g><g id="8mmyhap9m5"><g transform="translate(353 342)"><rect x="0" y="0" width="27.073033154010773" height="22.999999523162842" fill="rgba(255,255,255,0.01)" stroke="rgba(255,255,255,0.01)" stroke-width="NaN" stroke-linecap="round" stroke-linejoin="round"/></g><g transform="translate(362.5365165770054, 343.9999997615814) rotate(0, 4, 9.5)" width="8" height="19"><text text-decoration="none" x="0.5" fill="rgb(0, 0, 0)" font-size="9pt" font-family="Lato"  y="17">1</text><text text-decoration="none" x="7.5" fill="#4b4b4b" font-size="10pt" font-family="noto_regular"  y="17"></text></g></g><g id="7tztoph7pj"><g transform="translate(421 343)"><rect x="0" y="0" width="28.962083905935287" height="22.00000011920929" fill="rgba(255,255,255,0.01)" stroke="rgba(255,255,255,0.01)" stroke-width="NaN" stroke-linecap="round" stroke-linejoin="round"/></g><g transform="translate(430.48104195296764, 344.50000005960464) rotate(0, 5, 9.5)" width="10" height="19"><text text-decoration="none" x="0" fill="rgb(0, 0, 0)" font-size="9pt" font-family="Lato"  y="17">M</text><text text-decoration="none" x="11" fill="#4b4b4b" font-size="10pt" font-family="noto_regular"  y="17"></text></g></g><g id="3p36r8ppz1"><g transform="translate(422.1 385)"><rect x="0" y="0" width="22.91496992111206" height="19.99999910593033" fill="rgba(255,255,255,0.01)" stroke="rgba(255,255,255,0.01)" stroke-width="NaN" stroke-linecap="round" stroke-linejoin="round"/></g><g transform="translate(429.55748496055605, 385.49999955296516) rotate(0, 4, 9.5)" width="8" height="19"><text text-decoration="none" x="0.5" fill="rgb(0, 0, 0)" font-size="9pt" font-family="Lato"  y="17">1</text><text text-decoration="none" x="7.5" fill="#4b4b4b" font-size="10pt" font-family="noto_regular"  y="17"></text></g></g><g id="2fzis7m4vh"><g transform="translate(594 425)"><rect x="0" y="0" width="31.051191687583923" height="20.000001311302185" fill="rgba(255,255,255,0.01)" stroke="rgba(255,255,255,0.01)" stroke-width="NaN" stroke-linecap="round" stroke-linejoin="round"/></g><g transform="translate(605.525595843792, 425.5000006556511) rotate(0, 4, 9.5)" width="8" height="19"><text text-decoration="none" x="0.5" fill="rgb(0, 0, 0)" font-size="9pt" font-family="Lato"  y="17">1</text><text text-decoration="none" x="7.5" fill="#4b4b4b" font-size="10pt" font-family="noto_regular"  y="17"></text></g></g><g id="2fobyko3kf"><g transform="translate(632.9 250)"><rect x="0" y="0" width="27.001552283763885" height="25.000000536441803" fill="rgba(255,255,255,0.01)" stroke="rgba(255,255,255,0.01)" stroke-width="NaN" stroke-linecap="round" stroke-linejoin="round"/></g><g transform="translate(641.9007761418819, 253.0000002682209) rotate(0, 4.5, 9.5)" width="9" height="19"><text text-decoration="none" x="0" fill="rgb(0, 0, 0)" font-size="9pt" font-family="Lato"  y="17">N</text><text text-decoration="none" x="9" fill="#4b4b4b" font-size="10pt" font-family="noto_regular"  y="17"></text></g></g><g id="1r7z61x52p"><g transform="translate(682 287)"><rect x="0" y="0" width="28.05754691362381" height="22.999999523162842" fill="rgba(255,255,255,0.01)" stroke="rgba(255,255,255,0.01)" stroke-width="NaN" stroke-linecap="round" stroke-linejoin="round"/></g><g transform="translate(691.5287734568119, 288.9999997615814) rotate(0, 4.5, 9.5)" width="9" height="19"><text text-decoration="none" x="0" fill="rgb(0, 0, 0)" font-size="9pt" font-family="Lato"  y="17">N</text><text text-decoration="none" x="9" fill="#4b4b4b" font-size="10pt" font-family="noto_regular"  y="17"></text></g></g><g id="2bupqdw2ht"><g transform="translate(807 368)"><rect x="0" y="0" width="32.9195961356163" height="22.000008940696716" fill="rgba(255,255,255,0.01)" stroke="rgba(255,255,255,0.01)" stroke-width="NaN" stroke-linecap="round" stroke-linejoin="round"/></g><g transform="translate(818.4597980678082, 369.50000447034836) rotate(0, 5, 9.5)" width="10" height="19"><text text-decoration="none" x="0" fill="rgb(0, 0, 0)" font-size="9pt" font-family="Lato"  y="17">M</text><text text-decoration="none" x="11" fill="#4b4b4b" font-size="10pt" font-family="noto_regular"  y="17"></text></g></g><g id="4nkyjqchg2"><g transform="translate(835 25)"><rect x="0" y="0" width="235" height="90" rx="10" ry="10" fill="rgba(255,255,255,1)" stroke="#3298da" stroke-width="1.5" stroke-linecap="round" stroke-linejoin="round"/></g></g><g id="dkr5ff5q3t"><g transform="translate(860 35)"><rect x="0" y="0" width="200.00000596046448" height="75.99972534179688" fill="rgba(255,255,255,0.01)" stroke="rgba(255,255,255,0.01)" stroke-width="NaN" stroke-linecap="round" stroke-linejoin="round"/></g><g transform="translate(868.0000029802322, 48.49986267089844) rotate(0, 92, 24.5)" width="184" height="49"><text text-decoration="none" x="7" fill="rgb(0, 0, 0)" font-size="9pt" font-family="Lato"  y="13">ERD&#160;</text><text text-decoration="none" x="33" fill="rgb(0, 0, 0)" font-size="9pt" font-family="Lato"  y="13">of&#160;</text><text text-decoration="none" x="47" fill="rgb(0, 0, 0)" font-size="9pt" font-family="Lato"  y="13">Blood&#160;</text><text text-decoration="none" x="82" fill="rgb(0, 0, 0)" font-size="9pt" font-family="Lato"  y="13">Donation&#160;</text><text text-decoration="none" x="136" fill="rgb(0, 0, 0)" font-size="9pt" font-family="Lato"  y="13">System</text><text text-decoration="none" x="177" fill="rgb(0, 0, 0)" font-size="9pt" font-family="Lato"  y="13"></text><text text-decoration="none" x="85" fill="rgb(0, 0, 0)" font-size="9pt" font-family="Lato"  y="31">By</text><text text-decoration="none" x="99" fill="rgb(0, 0, 0)" font-size="9pt" font-family="Lato"  y="31"></text><text text-decoration="none" x="53" fill="rgb(0, 0, 0)" font-size="9pt" font-family="Lato"  y="53">Brenda&#160;</text><text text-decoration="none" x="97" fill="rgb(0, 0, 0)" font-size="9pt" font-family="Lato"  y="53">Macia</text><text text-decoration="none" x="131" fill="#4b4b4b" font-size="10pt" font-family="noto_regular"  y="53"></text></g></g></svg>